<svg width="30" height="90" viewBox="0 0 17 60" fill="none" xmlns="http://www.w3.org/2000/svg">
<path fill-rule="evenodd" clip-rule="evenodd" d="M10.4516 1.97899C10.4516 1.97899 11.9017 4.0984 11.6786 4.43304C11.4555 4.76768 10.2285 4.37727 10.2285 4.82346C10.2285 5.26965 12.0133 5.10233 12.4595 5.49274C12.9057 5.88316 13.9654 9.17381 14.1885 11.1259C14.4115 13.078 14.0769 14.3608 14.0769 14.3608C14.0769 14.3608 12.6268 10.0662 9.83809 9.39691C7.0494 8.72762 6.54744 10.7355 5.48774 13.3569C4.42803 15.9782 3.81452 17.5957 3.25678 17.9861C2.69904 18.3765 2.30863 18.3207 2.30863 18.9342C2.25285 19.5477 2.25285 19.8266 1.97398 20.1613C1.69512 20.4401 0.802734 20.719 0.802734 20.719C0.802734 20.719 2.19708 20.8305 2.97791 20.2728C3.75875 19.7151 4.7069 18.5438 5.48774 18.6554C6.26857 18.7669 6.2128 19.9382 6.04547 20.3844C5.87815 20.8305 6.43589 23.0615 6.26857 23.8981C6.10125 24.7905 4.20494 28.1369 4.20494 28.1369C4.20494 28.1369 2.42018 30.2563 2.14131 32.4315C1.80666 34.6067 1.41625 37.228 1.63934 38.3435C1.80666 39.459 2.14131 44.7017 2.14131 44.7017C2.14131 44.7017 1.69512 44.8133 1.63934 45.4826C1.58357 46.1519 1.63934 46.7096 1.63934 46.7096C1.63934 46.7096 0.858508 49.6098 1.47202 50.4464C2.02976 51.2831 3.70297 50.3907 3.70297 48.8848C3.70297 47.4347 4.42803 46.4865 4.81845 45.9288C5.20887 45.371 3.81452 43.642 3.81452 43.642L4.53958 38.5666L6.88208 34.3278C6.88208 34.3278 7.49559 41.5226 7.77446 42.415C8.05333 43.3074 9.83809 48.3828 9.83809 48.3828L10.6189 54.016C10.6189 54.016 10.4516 56.4142 10.5632 57.5297C10.6747 58.6452 11.0093 59.0356 12.1248 58.9798C13.2403 58.9241 13.5749 58.3106 13.1845 57.4182C12.7941 56.5258 12.6268 54.3506 12.4595 53.7929C12.2921 53.2351 11.9575 51.2831 11.9575 50.0003C11.9575 48.6617 12.571 40.686 12.571 40.686C12.571 40.686 12.7383 35.8895 12.7383 34.4951C12.7383 33.1008 12.6268 31.6507 12.6268 31.6507L14.1327 22.2249C14.1327 22.2249 16.1963 19.3804 16.1963 16.4244C16.1963 13.4684 15.3039 9.22959 14.8577 7.61215C14.4115 5.99471 14.0769 5.26965 14.0769 5.26965C14.0769 5.26965 13.8538 3.37334 13.4076 2.42518C12.9614 1.47703 12.5152 1.36548 12.3479 1.25393C12.1806 1.14238 12.7941 2.36941 12.7941 2.5925C12.7941 2.75983 12.0133 1.64435 11.7344 1.25393C11.4555 0.863516 11.2324 0.919289 11.1767 1.08661C11.1767 1.25393 10.9536 1.25393 10.7862 1.19816C10.6189 1.19816 10.3958 1.25393 10.3958 1.47703C10.3401 1.70012 10.5632 2.03477 10.5632 2.03477L10.4516 1.97899Z" fill="#FED15A"/>
<path fill-rule="evenodd" clip-rule="evenodd" d="M2.08511 44.646V44.7018C2.08511 44.7018 1.63892 44.8133 1.58314 45.4826C1.52737 46.1519 1.58314 46.7096 1.58314 46.7096C1.58314 46.7096 0.802311 49.6099 1.41582 50.4465C1.97356 51.2831 3.64678 50.3907 3.64678 48.8848C3.64678 47.4347 4.37184 46.4865 4.76225 45.9288C5.15267 45.3711 3.75832 43.6421 3.75832 43.6421V43.5305C3.64678 43.6978 3.42368 44.0325 3.03326 44.3671C2.41975 44.8691 2.14088 44.646 2.14088 44.646H2.08511ZM10.5627 53.9602V54.0718C10.5627 54.0718 10.3954 56.47 10.507 57.5855C10.6185 58.701 10.9531 59.0914 12.0686 59.0356C13.1841 58.9799 13.5187 58.3664 13.1283 57.474C12.8495 56.8047 12.6821 55.4103 12.5148 54.518C12.459 54.518 12.4033 54.5737 12.3475 54.5737C11.3436 54.9084 10.7301 54.4622 10.7301 54.4622L10.507 54.016L10.5627 53.9602Z" fill="#405A6C"/>
<path fill-rule="evenodd" clip-rule="evenodd" d="M14.021 14.1377C13.6864 13.2453 12.292 9.95467 9.89376 9.39693C7.10507 8.72765 6.6031 10.7355 5.5434 13.3569C4.4837 15.9782 3.87018 17.5957 3.31245 17.9861C2.75471 18.3765 2.36429 18.3207 2.36429 18.9343C2.30852 19.5478 2.30852 19.8266 2.02965 20.1613C1.75078 20.4402 0.858398 20.719 0.858398 20.719C0.858398 20.719 2.25274 20.8306 3.03358 20.2728C3.81441 19.7151 4.76257 18.5438 5.5434 18.6554C5.59917 18.6554 5.59917 18.6554 5.65495 18.7112C6.21269 18.0419 7.04929 17.1495 7.71858 17.1495C8.72251 17.1495 9.05715 17.1495 9.22447 16.7591C9.39179 16.3687 9.50334 15.4205 9.50334 15.4205L11.065 15.5321L10.6746 16.8706C10.6746 16.8706 12.794 16.4802 13.2402 16.4802C13.5748 16.536 13.9095 14.9185 14.0768 14.1377H14.021Z" fill="#405A6C"/>
<path fill-rule="evenodd" clip-rule="evenodd" d="M5.20839 26.2407C4.70642 27.1889 4.20446 28.0813 4.20446 28.0813C4.20446 28.0813 2.4197 30.2007 2.14083 32.3758C1.80618 34.551 1.41577 37.1724 1.63886 38.2879C1.63886 38.4552 1.69464 38.6783 1.75041 39.0129C2.47547 39.1802 3.64672 39.4591 4.37178 39.6822L4.5391 38.5667L6.8816 34.3279C6.8816 34.3279 7.49511 41.5227 7.77398 42.4151C8.05285 43.196 9.4472 47.2117 9.78184 48.1598H10.228L12.1243 48.0483C12.2917 45.2596 12.6263 40.6304 12.6263 40.6304C12.6263 40.6304 12.7936 35.8338 12.7936 34.4395C12.7936 33.0451 12.6821 31.595 12.6821 31.595L12.7936 30.8142C10.7858 29.5872 5.98922 26.6311 5.26416 26.2407H5.20839Z" fill="#405A6C"/>
<path fill-rule="evenodd" clip-rule="evenodd" d="M6.15651 19.9939C6.15651 20.1612 6.10074 20.2728 6.04497 20.3843C5.87765 20.8305 6.43538 23.0615 6.26806 23.8981C6.10074 24.7904 4.20443 28.1369 4.20443 28.1369C4.20443 28.1369 4.14866 28.1926 4.03711 28.36C5.04104 29.4754 6.60271 31.0371 8.38747 32.041C10.3396 33.1565 11.7897 32.8776 12.6263 32.4872C12.5705 31.9295 12.5705 31.5948 12.5705 31.5948L14.0764 22.1691L14.1322 22.1133C13.5187 21.7229 12.9051 21.2209 12.5705 20.4959C11.7339 18.8226 13.3513 16.6475 13.3513 16.6475C13.3513 16.6475 13.3513 16.6475 12.3474 17.2052C11.3435 17.7629 9.1683 21.5556 8.49901 20.5516C7.82973 19.5477 9.11253 17.8187 9.11253 17.8187C9.11253 17.8187 7.94128 18.1534 7.43931 18.8784C7.21622 19.2131 6.65848 19.6035 6.04497 19.9939H6.15651Z" fill="#87A0D1"/>
<path fill-rule="evenodd" clip-rule="evenodd" d="M11.1769 12.6875C11.6231 13.8588 11.5116 16.1455 10.5077 16.5359C9.50372 16.9263 7.94206 15.1973 7.49587 14.0819C7.04968 12.9106 7.55164 11.6836 8.55557 11.2932C9.5595 10.9027 10.7307 11.5163 11.1769 12.6875Z" fill="#FED15A"/>
</svg>